<svg width="28" height="27" viewBox="0 0 28 27" fill="none" xmlns="http://www.w3.org/2000/svg">
<path d="M3.672 26.432C2.648 26.1333 1.93333 25.8347 1.528 25.536C1.144 25.2373 0.952 24.864 0.952 24.416C0.952 24.0747 1.048 23.5947 1.24 22.976C1.432 22.3573 1.70933 21.632 2.072 20.8C2.456 19.9467 2.904 19.008 3.416 17.984C3.94933 16.96 4.54667 15.8613 5.208 14.688C4.65333 14.6667 4.152 14.656 3.704 14.656C3.27733 14.6347 2.92533 14.624 2.648 14.624C2.776 14.304 3.13867 14.0267 3.736 13.792C4.33333 13.5573 5.12267 13.3547 6.104 13.184C6.936 11.7973 7.82133 10.4747 8.76 9.216C9.72 7.95733 10.68 6.80533 11.64 5.76C12.6 4.69333 13.56 3.76533 14.52 2.976C15.48 2.16533 16.3973 1.52533 17.272 1.056C17.2933 0.906666 17.304 0.778666 17.304 0.671999C17.3253 0.565332 17.336 0.490665 17.336 0.447998C17.6347 0.447998 18.0293 0.522665 18.52 0.671999C19.032 0.821332 19.5227 1.00267 19.992 1.216C20.4827 1.42933 20.9093 1.65333 21.272 1.888C21.656 2.10133 21.8693 2.28267 21.912 2.432C21.208 3.66933 20.5147 5.52533 19.832 8C19.1493 10.4533 18.584 13.3973 18.136 16.832C18.0293 17.6853 17.9333 18.656 17.848 19.744C17.784 20.832 17.752 22.048 17.752 23.392C17.752 23.8613 17.752 24.3413 17.752 24.832C17.752 25.3227 17.7733 25.8347 17.816 26.368C17.7733 26.3893 17.7307 26.4 17.688 26.4C17.6453 26.4 17.56 26.4 17.432 26.4C17.1333 26.4 16.7813 26.3467 16.376 26.24C15.992 26.1547 15.608 26.0373 15.224 25.888C14.8613 25.76 14.5413 25.6107 14.264 25.44C14.008 25.2693 13.848 25.12 13.784 24.992C13.7627 24.7147 13.752 24.4373 13.752 24.16C13.752 23.904 13.752 23.6267 13.752 23.328C13.752 22.0053 13.7947 20.6613 13.88 19.296C13.9867 17.9307 14.1573 16.5227 14.392 15.072C14.0933 15.0507 13.6987 15.0293 13.208 15.008C12.7173 14.9653 12.1627 14.9333 11.544 14.912C10.9467 14.8907 10.296 14.8693 9.592 14.848C8.90933 14.8053 8.23733 14.7733 7.576 14.752C7.064 15.712 6.584 16.672 6.136 17.632C5.688 18.5707 5.304 19.52 4.984 20.48C4.62133 21.504 4.32267 22.528 4.088 23.552C3.87467 24.576 3.736 25.536 3.672 26.432ZM16.024 7.2C16.1093 6.90133 16.2053 6.496 16.312 5.984C16.44 5.45067 16.5573 4.896 16.664 4.32C16.1307 4.512 15.5333 4.864 14.872 5.376C14.232 5.888 13.56 6.528 12.856 7.296C12.1733 8.04267 11.4693 8.896 10.744 9.856C10.04 10.7947 9.35733 11.7973 8.696 12.864C10.488 12.7147 12.5253 12.6187 14.808 12.576C14.9787 11.68 15.16 10.7947 15.352 9.92C15.5653 9.024 15.7893 8.11733 16.024 7.2ZM24.1712 25.216C23.8299 25.1733 23.4672 25.024 23.0832 24.768C22.7206 24.5333 22.4859 24.2667 22.3792 23.968C22.3792 23.712 22.4112 23.3813 22.4752 22.976C22.5606 22.5707 22.6566 22.1653 22.7632 21.76C22.8699 21.3333 22.9766 20.9387 23.0832 20.576C23.1899 20.192 23.2646 19.904 23.3072 19.712C23.5632 19.712 23.8832 19.776 24.2672 19.904C24.6726 20.032 25.0779 20.2133 25.4832 20.448C25.9099 20.6613 26.3046 20.9173 26.6672 21.216C27.0512 21.4933 27.3392 21.7813 27.5312 22.08C27.3392 22.5067 27.0939 22.912 26.7952 23.296C26.4966 23.68 26.1766 24.0107 25.8352 24.288C25.5152 24.5867 25.2059 24.8107 24.9072 24.96C24.6086 25.1307 24.3632 25.216 24.1712 25.216Z" fill="black"/>
</svg>
