<svg width="32" height="32" viewBox="0 0 32 32" fill="none" xmlns="http://www.w3.org/2000/svg">
<path d="M27.1111 4C27.8773 4 28.6121 4.30436 29.1539 4.84614C29.6956 5.38791 30 6.12271 30 6.88889V27.1111C30 27.8773 29.6956 28.6121 29.1539 29.1539C28.6121 29.6956 27.8773 30 27.1111 30H6.88889C6.12271 30 5.38791 29.6956 4.84614 29.1539C4.30436 28.6121 4 27.8773 4 27.1111V6.88889C4 6.12271 4.30436 5.38791 4.84614 4.84614C5.38791 4.30436 6.12271 4 6.88889 4H27.1111ZM26.3889 26.3889V18.7333C26.3889 17.4845 25.8928 16.2867 25.0097 15.4036C24.1266 14.5206 22.9289 14.0244 21.68 14.0244C20.4522 14.0244 19.0222 14.7756 18.3289 15.9022V14.2989H14.2989V26.3889H18.3289V19.2678C18.3289 18.1556 19.2244 17.2456 20.3367 17.2456C20.873 17.2456 21.3874 17.4586 21.7666 17.8379C22.1458 18.2171 22.3589 18.7315 22.3589 19.2678V26.3889H26.3889ZM9.60444 12.0311C10.248 12.0311 10.8653 11.7754 11.3204 11.3204C11.7754 10.8653 12.0311 10.248 12.0311 9.60444C12.0311 8.26111 10.9478 7.16333 9.60444 7.16333C8.95702 7.16333 8.33612 7.42052 7.87832 7.87832C7.42052 8.33612 7.16333 8.95702 7.16333 9.60444C7.16333 10.9478 8.26111 12.0311 9.60444 12.0311ZM11.6122 26.3889V14.2989H7.61111V26.3889H11.6122Z" fill="white"/>
</svg>
