<svg width="32" height="32" viewBox="0 0 32 32" fill="none" xmlns="http://www.w3.org/2000/svg">
<path d="M29.9467 7.99992C28.92 8.46659 27.8133 8.77325 26.6667 8.91992C27.84 8.21325 28.7467 7.09325 29.1733 5.74659C28.0667 6.41325 26.84 6.87992 25.5467 7.14659C24.4933 5.99992 23.0133 5.33325 21.3333 5.33325C18.2 5.33325 15.64 7.89325 15.64 11.0533C15.64 11.5066 15.6933 11.9466 15.7867 12.3599C11.04 12.1199 6.81333 9.83992 4 6.38659C3.50666 7.22659 3.22666 8.21325 3.22666 9.25325C3.22666 11.2399 4.22666 12.9999 5.77333 13.9999C4.82666 13.9999 3.94666 13.7333 3.17333 13.3333V13.3733C3.17333 16.1466 5.14666 18.4666 7.76 18.9866C6.92097 19.2162 6.04012 19.2481 5.18666 19.0799C5.5488 20.2166 6.25805 21.2111 7.21468 21.9238C8.17132 22.6365 9.32726 23.0315 10.52 23.0533C8.49817 24.6538 5.99199 25.519 3.41333 25.5066C2.96 25.5066 2.50666 25.4799 2.05333 25.4266C4.58666 27.0532 7.6 27.9999 10.8267 27.9999C21.3333 27.9999 27.1067 19.2799 27.1067 11.7199C27.1067 11.4666 27.1067 11.2266 27.0933 10.9733C28.2133 10.1733 29.1733 9.15992 29.9467 7.99992Z" fill="white"/>
</svg>
